<svg width="172" height="42" viewBox="0 0 172 42" fill="none" xmlns="http://www.w3.org/2000/svg">
<path d="M171.66 1.87006C171.073 0.992658 170.368 0.382934 167.438 0.163584C166.668 0.104099 164.132 0.0185901 159.858 0.0185901C148.632 0.0185901 141.005 3.49101 137.096 10.3392C138.172 3.4464 131.574 0 117.302 0C100.539 0 90.0771 6.87546 85.9167 20.6264C84.3669 25.7421 84.2039 29.9345 85.4277 33.2037L81.4717 33.4751C78.377 33.7167 74.3115 33.9287 71.8189 33.9287C65.6879 33.9287 61.8839 32.8802 60.4071 30.7834C59.086 28.9022 59.2138 25.4075 60.7721 20.3104C63.3267 11.8672 69.6694 8.06763 79.7966 8.06763C85.0481 8.06763 90.161 8.62902 90.1647 8.62902C90.8654 8.58441 91.1792 7.83713 91.0989 7.21625L90.9967 6.4095L90.6318 3.57281C90.3885 1.71143 89.026 0.607245 86.5444 0.260251C84.2672 0.104103 82.5738 0 80.0849 0H79.9462C66.7061 0.0297424 57.4791 4.45765 52.2652 13.2837C54.1824 4.42791 48.055 0 33.883 0C26.0002 0 20.346 0.226787 16.9204 0.680358C14.2928 1.01496 12.6895 2.12287 12.1104 4.00407L10.9718 7.64752C10.7674 8.31301 11.0813 8.64389 11.9243 8.64389H11.9498C12.5702 8.56581 14.9716 8.32416 19.0699 7.98956C24.4905 7.55086 28.5183 7.33027 31.1532 7.32779C38.9557 7.32779 42.2402 9.31681 41.0067 13.2949C40.8953 13.7062 40.6733 14.0777 40.3657 14.3674C40.0581 14.6571 39.6772 14.8535 39.2659 14.9344C31.8867 16.1737 26.0294 17.0697 21.6939 17.6224C9.49985 19.2037 2.45399 23.0739 0.556281 29.2331C-2.04455 37.7072 4.47457 41.9442 20.1136 41.9442C27.9113 41.9442 34.4584 41.4869 39.7549 40.5724C42.8022 40.0519 44.3496 39.2563 44.9627 37.2561L47.8822 27.8129C47.5793 37.2486 54.0863 42 67.3848 42C73.1473 42 78.6105 41.8067 81.187 41.3494C83.9168 40.8698 85.2014 40.2638 85.8218 38.1669L86.413 35.1927C89.2474 39.6962 95.4685 41.948 105.076 41.948C115.205 41.948 121.111 41.6592 122.794 41.0817C124.207 40.6244 125.079 39.8846 125.389 38.851C125.449 38.6585 125.491 38.4606 125.513 38.2599L126.728 34.2484C126.94 33.5532 126.623 33.2186 125.791 33.2483L119.305 33.568C114.98 33.8159 111.593 33.9398 109.145 33.9398C104.545 33.9398 101.382 33.6201 99.6569 32.9806C97.1023 31.9768 95.8797 29.9766 96.0074 26.9652L116.543 24.2847C125.752 23.0826 131.913 20.1963 135.027 15.6259L128.068 40.3121C127.997 40.4957 127.974 40.6949 128.001 40.8903C128.027 41.0857 128.103 41.2708 128.221 41.4275C128.48 41.736 128.925 41.8848 129.582 41.8848H138.078C139.564 41.8848 140.096 41.104 140.268 40.4497L147.782 13.8005C148.767 10.2946 151.935 8.59555 157.46 8.59555C162.445 8.59555 166.219 8.64017 168.606 8.7294H168.792C169.186 8.7321 169.569 8.60294 169.884 8.36177C170.198 8.12061 170.426 7.78082 170.533 7.39471L171.85 3.73639C171.975 3.43411 172.023 3.10466 171.99 2.77847C171.957 2.45228 171.843 2.13986 171.66 1.87006V1.87006ZM34.6676 33.9287C32.0108 34.3525 28.1911 34.5644 23.2084 34.5644C14.5714 34.5644 10.8003 32.7873 11.8951 29.2331C12.6785 26.6851 14.9472 25.1534 18.7013 24.6379L38.3499 21.9499L34.6676 33.9287ZM125.484 12.3394C124.657 15.0658 120.815 16.9333 113.959 17.9421L97.5876 20.3104L98.0037 18.9459C99.3588 14.4548 101.283 11.3951 103.777 9.76667C106.271 8.13827 110.322 7.32532 115.93 7.32779C123.314 7.32779 126.499 8.99832 125.484 12.3394Z" fill="#83B81A"/>
</svg>
