<svg width="204" height="36" viewBox="0 0 204 36" fill="none" xmlns="http://www.w3.org/2000/svg">
<g clip-path="url(#clip0)">
<path d="M28.4784 0L27.4125 0.144247L26.2191 0.551235L25.2909 1.0664L24.7809 1.58157L18.819 9.74185H93.789V0.144247L57.375 0L54.315 0.551235L52.4637 1.33944L51.1275 2.28735L49.6587 3.87922L48.6081 5.37836L47.1444 8.18088V0H28.4784ZM152.046 0L150.052 0.273039L148.604 0.551235L147.007 1.33944L145.559 2.28735L144.631 3.3486L143.167 5.37836L142.372 7.24327L141.719 9.49972V9.77275H188.445V0.144247L152.046 0ZM95.4822 0.144247V9.77275H106.335V0.144247H95.4822ZM130.193 0.144247V9.77275H141.173V0.144247H130.193ZM199.043 0.273039C198.055 0.268967 197.088 0.560911 196.265 1.11193C195.442 1.66296 194.798 2.4483 194.417 3.36861C194.035 4.28892 193.933 5.30284 194.122 6.28211C194.311 7.26138 194.783 8.162 195.479 8.87001C196.175 9.57803 197.063 10.0616 198.031 10.2597C199 10.4577 200.004 10.3612 200.918 9.98248C201.832 9.60374 202.614 8.95973 203.165 8.13193C203.716 7.30412 204.012 6.32972 204.015 5.332C204.015 3.99384 203.49 2.71019 202.556 1.76204C201.621 0.813893 200.352 0.27849 199.027 0.273039H199.043ZM199.043 1.11277C199.861 1.11584 200.66 1.36331 201.339 1.82403C202.018 2.28475 202.547 2.93811 202.86 3.7019C203.172 4.46568 203.254 5.30574 203.094 6.11633C202.935 6.92691 202.542 7.6718 201.965 8.25721C201.387 8.84263 200.651 9.24242 199.849 9.40625C199.048 9.57008 198.216 9.49063 197.458 9.17791C196.701 8.86519 196.052 8.33317 195.594 7.64881C195.135 6.96446 194.887 6.15837 194.881 5.332C194.879 4.77995 194.985 4.2329 195.192 3.7221C195.399 3.21129 195.704 2.74673 196.089 2.35494C196.474 1.96315 196.932 1.6518 197.436 1.43866C197.94 1.22553 198.481 1.11479 199.027 1.11277H199.043ZM198.772 2.09674C198.252 2.09023 197.731 2.11087 197.212 2.15856C196.936 2.15856 196.86 2.31826 196.86 2.64282V8.083C196.86 8.2221 196.942 8.32513 197.033 8.32513H197.895C197.95 8.31989 198 8.2932 198.036 8.2508C198.071 8.2084 198.088 8.15369 198.084 8.09846V5.9399H198.645C198.691 5.9399 198.823 5.99141 198.823 6.03778L200.114 8.18088C200.115 8.20216 200.121 8.22295 200.13 8.24195C200.14 8.26095 200.153 8.27775 200.169 8.2913C200.186 8.30484 200.204 8.31484 200.225 8.32067C200.245 8.32649 200.266 8.32801 200.287 8.32513H201.195C201.221 8.32663 201.247 8.32259 201.271 8.31328C201.295 8.30397 201.317 8.2896 201.335 8.27111C201.354 8.25263 201.368 8.23044 201.377 8.20601C201.386 8.18158 201.39 8.15546 201.389 8.12936V7.95421L200.063 5.71838C200.406 5.62602 200.706 5.41625 200.912 5.12493C201.119 4.83361 201.219 4.47886 201.195 4.12135V4.00801C201.195 2.56039 200.308 2.09674 198.757 2.09674H198.772ZM198.089 3.1889H198.869C199.69 3.1889 200.002 3.40527 200.002 4.02862V4.13681C200.002 4.70864 199.69 4.96108 198.869 4.96108H198.089V3.1889ZM18.2784 10.1746V10.3034L0 35.8558H13.26L31.0131 11.1277L18.2784 10.1746ZM95.4822 10.1746L95.625 23.2805L94.7019 20.8798L94.0287 19.6743L92.9781 18.34L91.3869 16.8563L90.0609 16.0681L88.1994 15.3932L86.6184 14.9914L47.2872 12.4619L48.6081 15.6663L49.4037 16.8563L50.4594 18.067V18.1958L51.1275 18.7418H51.255L51.9231 19.257L55.4931 20.5913H55.7634L56.2734 20.7201H56.4009L57.5994 20.8695L84.2163 22.6056L84.8844 22.8632L85.2822 23.1362L85.5372 23.5381L85.8075 23.9399V24.8775L85.68 25.1505L85.4097 25.5524L85.2822 25.6812L84.8844 25.9388L84.6141 26.083H84.2163L46.8741 26.2118V12.1889L36.1641 11.514V35.8558L83.8338 36L86.2206 35.727L88.995 34.9181L91.1166 33.7127L92.8353 32.2444L93.636 31.312L94.7019 29.9777L95.2119 28.767L95.7219 27.0309L95.9922 28.494L96.2472 29.4471L97.1907 31.5695L97.971 32.5226L98.5116 33.182L99.9651 34.2587L101.159 34.7739L103.005 35.4333L105.794 35.8351H131.218L134.405 35.1757L135.584 34.6606L137.18 33.7127L138.501 32.3732L139.424 30.9101L139.995 30.1065L140.505 28.2364L140.775 26.6291V35.8506H178.77L181.687 35.3354L183.279 34.8203L185.13 33.8878L186.721 32.6772L188.317 31.0698L188.97 30.0086L189.638 28.3961L189.909 27.0618L190.036 24.7899L189.766 23.0538L189.256 21.4413L188.333 19.7052L187.532 18.6234L186.084 17.1603L185.145 16.6451L183.166 15.5632L181.703 15.1614L180.775 15.0326H180.52L180.249 14.9038H179.979L141.729 12.2301V12.4877L141.984 13.8271L143.305 16.2433L144.774 18.1082L144.901 18.237L145.029 18.3812L145.569 18.7831L146.747 19.4425L150.062 20.6531L178.546 22.6623H178.673L179.341 22.7911L179.596 23.0693H179.739L179.867 23.1981L179.994 23.3268V23.4093L180.137 23.5381V23.6669L180.265 24.182V24.4551L180.137 24.8569V25.1299L179.994 25.2587V25.3875H179.867L179.739 25.5318L179.596 25.6606H179.469L179.341 25.7894L178.944 25.9181H178.673L178.546 26.0624H140.857L141.051 24.3263L140.796 12.1528L130.198 11.6068V24.4551L130.055 24.8569L129.928 25.2587L129.8 25.3875L129.657 25.5318H129.53V25.7894L128.877 26.1912L128.204 26.32H109.798L109.528 26.4642H109.13L109.002 26.32H108.375L108.227 26.1912L107.574 25.9181H107.431L107.304 25.7894L107.176 25.6606L107.034 25.5318H106.906V25.3875L106.651 25.1299L106.381 24.7281L106.253 24.3263V10.6743L95.4822 10.1746ZM47.2872 12.4619H47.1444H47.2872Z" fill="#22448F"/>
</g>
<defs>
<clipPath id="clip0">
<rect width="204" height="36" fill="white"/>
</clipPath>
</defs>
</svg>
