<svg width="94" height="93" viewBox="0 0 94 93" fill="none" xmlns="http://www.w3.org/2000/svg">
<g clip-path="url(#clip0)">
<path fill-rule="evenodd" clip-rule="evenodd" d="M75.4353 32.2587H67.9556L57.4745 60.6983H64.9558L75.4353 32.2636V32.2587ZM46.995 92.9438C46.5321 92.9438 46.0659 92.934 45.603 92.9209L55.208 66.819H68.4235C70.7464 66.819 73.2949 65.0571 74.0864 62.9015L84.5061 34.5997C86.2151 29.9636 83.5338 26.1774 78.533 26.1774H60.2022L44.8165 67.9821L36.0858 91.6774C15.3957 86.8182 0 68.4184 0 46.4719C0 25.1553 14.518 7.18864 34.3138 1.71432L25.311 26.1774L10.3434 66.819H20.2986L33.0246 32.2849H40.5175L27.7915 66.819H37.7467L49.6099 34.5997C51.3156 29.9636 48.6343 26.1774 43.6501 26.1774H35.2728L44.8845 0.0524958C45.588 0.0180454 46.2915 0 46.995 0C72.9598 0 94 20.8064 94 46.4719C94 72.1374 72.9598 92.9438 46.995 92.9438Z" fill="#00A1DD"/>
</g>
<defs>
<clipPath id="clip0">
<rect width="94" height="92.9438" fill="white"/>
</clipPath>
</defs>
</svg>
