<svg width="196" height="40" viewBox="0 0 196 40" fill="none" xmlns="http://www.w3.org/2000/svg">
<g clip-path="url(#clip0)">
<path d="M82.1476 8.61865C80.2099 8.63012 78.3002 9.07691 76.5628 9.92526C74.8254 10.7736 73.3057 12.0013 72.1186 13.5156V13.5156V9.16549H63.6826V39.5593H72.1186V22.1914C72.1186 19.0737 74.5949 15.7682 79.0853 15.7682C82.5769 15.7682 86.184 18.1677 86.184 22.1914V39.4858H94.6282V20.6407C94.6282 13.6544 89.5683 8.57785 82.1476 8.57785" fill="#E51E25"/>
<path d="M154.621 9.09201L146.994 29.8388L139.358 9.13283H129.717L142.363 39.5185H151.616L164.262 9.13283L154.621 9.09201Z" fill="#E51E25"/>
<path d="M38.4817 18.2493C39.2432 17.2705 40.2298 16.4852 41.3595 15.9587C42.4892 15.4321 43.7297 15.1793 44.9779 15.2214C46.3705 15.2124 47.7347 15.6114 48.8982 16.3682C50.0617 17.125 50.9724 18.2055 51.5154 19.4736L36.7731 25.5213C36.3493 22.9693 36.9635 20.3552 38.4817 18.2493V18.2493ZM54.7016 30.1408C51.1439 32.7362 49.1134 33.3565 45.8776 33.3565C44.6348 33.4177 43.3921 33.2326 42.2227 32.8121C41.0532 32.3917 39.9805 31.7442 39.0678 30.908L60.653 22.0608C60.2619 18.9428 58.9823 15.9989 56.9633 13.5727C54.132 10.3081 49.9305 8.59416 44.8211 8.59416C35.5432 8.59416 28.5435 15.3683 28.5435 24.3052C28.5435 33.4789 35.5597 40.0163 45.7538 40.0163C51.4659 40.0163 57.3099 37.3393 60.0339 34.2134L54.7016 30.1408Z" fill="#E51E25"/>
<path d="M27.7347 31.8202H8.55153V-0.0100098H0V39.4758H27.7347V31.8202Z" fill="#E51E25"/>
<path d="M179.417 15.7274C174.704 15.7274 171.286 19.2614 171.286 24.2889C171.286 29.0879 174.91 32.8423 179.541 32.8423C184.171 32.8423 187.679 29.2104 187.679 24.2889C187.679 19.4899 184.056 15.7274 179.425 15.7274H179.417ZM179.425 39.9918C170.197 39.9918 162.966 33.1932 162.966 24.2889C162.966 15.3846 170.238 8.61864 179.532 8.61864C188.827 8.61864 195.992 15.4173 195.992 24.3297C195.992 33.2422 188.711 40.0326 179.417 40.0326" fill="#E51E25"/>
<path d="M114.43 15.7274C109.717 15.7274 106.3 19.2614 106.3 24.2889C106.3 29.0879 109.924 32.8423 114.554 32.8423C119.185 32.8423 122.693 29.2104 122.693 24.2889C122.693 19.4899 119.069 15.7274 114.439 15.7274H114.43ZM114.439 39.9918C105.21 39.9918 97.9795 33.1932 97.9795 24.2889C97.9795 15.3846 105.252 8.61864 114.546 8.61864C123.84 8.61864 131.005 15.4173 131.005 24.3297C131.005 33.2422 123.725 40.0326 114.43 40.0326" fill="#E51E25"/>
</g>
<defs>
<clipPath id="clip0">
<rect width="196" height="40" fill="white"/>
</clipPath>
</defs>
</svg>
